<?xml version="1.0" encoding="UTF-8"?>
<svg width="129px" height="89px" viewBox="0 0 129 89" version="1.1" xmlns="http://www.w3.org/2000/svg" xmlns:xlink="http://www.w3.org/1999/xlink">
    <!-- Generator: Sketch 41.2 (35397) - http://www.bohemiancoding.com/sketch -->
    <title>Combined Shape</title>
    <desc>Created with Sketch.</desc>
    <defs></defs>
    <g id="Page-1" stroke="none" stroke-width="1" fill="none" fill-rule="evenodd">
        <path d="M128.007466,29 C128.007466,29 95.958519,49.4547465 64.0037328,49.4547465 C32.0489466,49.4547465 0,29 0,29 L0.0231797851,19.1332838 C0.0231797851,19.1332838 31.6137682,40.1888682 63.7347878,40.1554172 C95.8558075,40.1219661 128.007466,19 128.007466,19 L128.007466,29 Z M128.007466,10 C128.007466,10 95.958519,33 64.0037328,33 C32.0489466,33 0,10 0,10 L0.0231797851,0.133283764 C0.0231797851,0.133283764 31.6137682,23.7341218 63.7347878,23.7006707 C95.8558075,23.6672196 128.007466,0 128.007466,0 L128.007466,10 Z M128.262054,88.211002 L0.265212152,87.9164256 L0.288391937,35.7203787 C0.288391937,35.7203787 31.8789803,56.7759632 64,56.7425122 C96.1210197,56.7090611 128.272678,35.587095 128.272678,35.587095 L128.262054,88.211002 Z" id="Combined-Shape" fill="#28ABE3"></path>
    </g>
</svg>