<?xml version="1.0" encoding="UTF-8"?>
<svg width="134px" height="60px" viewBox="0 0 134 60" version="1.1" xmlns="http://www.w3.org/2000/svg" xmlns:xlink="http://www.w3.org/1999/xlink">
    <!-- Generator: Sketch 41.2 (35397) - http://www.bohemiancoding.com/sketch -->
    <title>logo</title>
    <desc>Created with Sketch.</desc>
    <defs></defs>
    <g id="Page-1" stroke="none" stroke-width="1" fill="none" fill-rule="evenodd">
        <g id="logo">
            <g id="Symbols">
                <g id="logo-header">
                    <g id="Group">
                        <rect id="Rectangle-4" fill="#00B9E5" x="0" y="0" width="134" height="60"></rect>
                        <text id="ТВОЯ" fill="#FFFFFF" font-family="Futura-Bold, Futura" font-size="18" font-weight="bold">
                            <tspan x="49" y="30">ТВОЯ</tspan>
                        </text>
                        <text id="ВОДА" fill="#FFFFFF" font-family="Futura-Bold, Futura" font-size="18" font-weight="bold">
                            <tspan x="49" y="48">ВОДА</tspan>
                        </text>
                        <g id="logo-2" transform="translate(11.000000, 6.000000)" fill="#FFFFFF">
                            <path d="M12.8382786,45.9635807 C19.0467073,46.1627253 23.1322333,41.2925632 23.3419235,40.7635873 C23.5516136,40.2346112 23.4180166,39.9771914 23.3157571,39.6981845 C23.2134977,39.4191774 23.1687454,38.9065074 23.1687454,38.9065074 L23.9082024,38.2889386 C23.9082024,38.2889386 24.4066838,38.056588 24.2182796,37.6287377 C24.1279662,37.4236432 23.0771857,37.5161301 22.5292387,37.2757482 C21.9341061,37.0146664 21.8369528,36.7440946 21.8369528,36.7440946 C21.8369528,36.7440946 22.8806122,37.0479824 23.8891957,36.9512008 C24.2456665,36.9169944 24.3996617,36.7106229 24.4768042,36.4244531 C24.5539466,36.1382832 23.8886931,35.3558124 23.8886931,35.3558124 C23.8886931,35.3558124 23.739191,35.0881025 24.2800208,34.7695655 C24.8018403,34.4622251 25.8792442,34.4832497 25.8974742,33.7972517 C26.0593509,33.3099897 24.7020517,31.2851693 24.7020517,31.2851693 C24.7020517,31.2851693 24.1950237,30.7149105 23.9135023,30.054664 C23.6429211,29.4200755 23.6477283,28.6481401 23.844146,28.3562788 C23.9384227,28.2161912 24.0501692,28.1556248 24.1384757,27.7837799 C24.234149,27.380916 24.2380325,26.7645866 24.1872261,26.2478456 C24.0344435,23.3352697 22.1929084,16.8549944 19.7920528,12.7798049 C16.5166503,7.22016754 9.93552392,0.0118432387 9.93552392,0.0118432387 C9.93552392,0.0118432387 13.1330349,4.74242525 9.99639812,12.3157977 C8.08730903,16.9252706 7.68235603,16.4074168 5.07096295,19.7441612 C0.910222702,25.0606057 0.156071538,28.1466633 0.173333333,33.4480978 C0.195000475,40.1025002 5.39676576,45.7248832 12.8382786,45.9635807 Z M23.1548798,21.1136359 C22.6300138,20.2272152 21.3609439,19.0398239 19.8634599,18.3220365 C17.7967833,17.3314188 15.3429893,16.9554788 14.2424526,16.975511 C12.0060936,17.0162176 8.30937734,18.5611802 7.25987248,19.7784567 C5.44862027,21.8792517 2.4226552,25.0894801 1.93858638,30.8893964 C1.56380335,35.3798947 2.50615414,38.219835 4.48752354,40.7333695 C6.46889294,43.2469043 7.67751899,42.4793673 8.46036154,41.810253 C9.24320408,41.1411387 8.46199957,39.4556982 8.26702174,39.0282725 C8.07204393,38.6008468 6.1079066,36.4627174 5.65409333,32.9660112 C5.20028004,29.4693049 4.69699481,26.9547406 7.24769058,22.46975 C8.71476708,19.8901305 11.3608464,18.4425021 14.2731038,18.0075222 C15.371401,17.8434787 17.5891879,17.8893634 19.7144709,18.8051138 C20.9396526,19.3330248 21.9772809,20.6222752 23.1548798,21.1136359 Z" id="Combined-Shape"></path>
                        </g>
                    </g>
                </g>
            </g>
        </g>
    </g>
</svg>